<svg version="1.2"
	xmlns="http://www.w3.org/2000/svg" viewBox="0 0 600 600" width="600" height="600">
	<title>MiPresión - Registro de presión sanguínea por Jonatandb</title>
	<style>
		.s0 { fill: #d32f2f }
	</style>
	<path class="s0" d="m311 50c14.2 26.9 28.5 53.3 42.4 80 13.5 26.1 27.4 52.1 39.7 78.8 16.8 36.4 32.7 73.2 48.2 110.2 6.2 14.9 10.8 30.5 15 46.1 2.9 10.3 5.3 21.2 5.3 31.8-0.1 13-2 26.3-4.9 39-4.2 18.3-11.9 35.3-22.6 50.9-16.6 24-37.8 42.7-64.3 55.2-15.4 7.3-31.7 12.1-48.8 14-29.4 3.3-57.6-0.3-84.8-12.3-16.6-7.3-31.3-17.2-44.6-29.4-15.9-14.7-28.3-32-37.1-51.6-6.5-14.3-11.1-29.4-12.5-45.2-0.6-6.9-2.2-13.8-1.8-20.6 0.6-8.9 2.3-17.9 4.3-26.6 6.8-30.5 18.5-59.3 30.8-87.8 9.8-22.7 20.1-45.2 30.8-67.5 12.8-26.9 26-53.5 39.5-80 10.7-20.9 22-41.5 33.1-62.2 3.6-6.8 7.5-13.4 11.1-20.3 4.7-9.1 14.3-10.4 21.2-2.5zm-59.5 430c2.8 1.6 5.3 3.8 8.3 4.8 7.1 2.4 14.4 4.6 21.8 6.3 6 1.4 12.2 2.4 18.3 2.8 5.9 0.3 11.3-5.1 12-11.1 0.4-3.5-3.2-10.3-9.4-10.8-4.8-0.4-9.4-1.2-14.1-2-28.2-5-47.6-21.1-57.2-47.9-3.1-8.6-3.5-18.2-5.3-27.3-1-5.2-6.3-9.2-11-8.8-5.5 0.5-9.7 5.4-9.9 11.1-0.6 13.2 2.1 25.9 7.2 37.8 5.9 13.9 14.4 26.1 26.6 35.4 4.1 3.1 8 6.4 12.7 9.7z"/>
</svg>