<svg width="800" height="800" viewBox="0 0 800 800" fill="none" xmlns="http://www.w3.org/2000/svg">
<path d="M198.759 226.036C224.712 198.202 255.481 176.574 290.211 161.752C295.241 159.615 301.052 160.626 305.04 164.354C309.044 168.083 310.461 173.813 308.68 178.978C277.21 269.749 302.276 370.725 372.506 436.225C442.764 501.728 545.243 519.689 633.582 481.958C638.569 479.829 644.423 480.832 648.411 484.56C652.415 488.289 653.832 494.019 652.051 499.184C639.672 534.874 620.244 567.076 594.291 594.895C545.038 647.718 478.152 678.205 405.966 680.725C402.73 680.841 399.508 680.892 396.287 680.892C327.648 680.892 262.555 655.295 212.101 608.241C159.263 558.976 128.792 492.095 126.271 419.905C123.758 347.715 149.494 278.867 198.759 226.036ZM153.862 418.941C156.127 483.755 183.5 543.81 230.93 588.042C278.36 632.27 340.204 655.508 405.002 653.123C469.828 650.866 529.876 623.496 574.1 576.059C590.4 558.593 603.827 539.203 614.223 518.187C523.352 544.794 424.013 522.008 353.686 456.424C283.346 390.832 253.685 293.305 273.895 200.807C253.646 212.643 235.239 227.395 218.954 244.876C174.719 292.306 151.608 354.131 153.862 418.941Z" fill="black" stroke="black" stroke-width="3.8718"/>
<path d="M151.059 634.035C156.452 628.642 165.187 628.642 170.58 634.035C175.974 639.429 175.974 648.163 170.58 653.557L141.298 682.839C138.603 685.534 135.068 686.885 131.537 686.885C128.006 686.885 124.471 685.538 121.776 682.839C116.383 677.446 116.383 668.711 121.776 663.318L151.059 634.035Z" fill="black" stroke="black" stroke-width="3.8718"/>
<path d="M141.298 117.157L170.58 146.447C175.974 151.841 175.974 160.583 170.58 165.969C167.885 168.664 164.35 170.015 160.819 170.015C157.288 170.015 153.753 168.667 151.059 165.969L121.776 136.679C116.383 131.285 116.383 122.543 121.776 117.157C127.169 111.764 135.904 111.764 141.298 117.157Z" fill="black" stroke="black" stroke-width="3.8718"/>
<path d="M400 700C407.631 700 413.807 706.183 413.807 713.807V755.224C413.807 762.847 407.631 769.03 400 769.03C392.369 769.03 386.193 762.847 386.193 755.224V713.807C386.193 706.183 392.369 700 400 700Z" fill="black" stroke="black" stroke-width="3.8718"/>
<path d="M20.3308 386.193H61.7475C69.3789 386.193 75.5544 392.376 75.5544 400C75.5544 407.624 69.3789 413.807 61.7475 413.807H20.3308C12.6995 413.807 6.524 407.624 6.524 400C6.524 392.376 12.7034 386.193 20.3308 386.193Z" fill="black" stroke="black" stroke-width="3.8718"/>
<path d="M648.942 165.969C646.247 168.664 642.712 170.015 639.181 170.015C635.65 170.015 632.115 168.667 629.42 165.969C624.026 160.583 624.026 151.841 629.42 146.447L658.702 117.157C664.096 111.764 672.831 111.764 678.224 117.157C683.617 122.543 683.617 131.285 678.224 136.679L648.942 165.969Z" fill="black" stroke="black" stroke-width="3.8718"/>
<path d="M648.942 634.035L678.224 663.318C683.617 668.711 683.617 677.446 678.224 682.839C675.529 685.534 671.994 686.885 668.463 686.885C664.932 686.885 661.397 685.538 658.702 682.839L629.42 653.557C624.026 648.163 624.026 639.429 629.42 634.035C634.813 628.642 643.548 628.642 648.942 634.035Z" fill="black" stroke="black" stroke-width="3.8718"/>
<path d="M400 109.03C392.369 109.03 386.193 102.847 386.193 95.2235V53.8069C386.193 46.1833 392.369 40 400 40C407.631 40 413.807 46.1833 413.807 53.8069V95.2235C413.807 102.847 407.631 109.03 400 109.03Z" fill="black" stroke="black" stroke-width="3.8718"/>
<path d="M738.249 386.193H779.669C787.3 386.193 793.476 392.376 793.476 400C793.476 407.624 787.3 413.807 779.669 413.807H738.252C730.621 413.807 724.446 407.624 724.446 400C724.446 392.376 730.621 386.193 738.249 386.193Z" fill="black" stroke="black" stroke-width="3.8718"/>
</svg>
